<?xml version="1.0" encoding="UTF-8"?>
<svg width="109px" height="24px" viewBox="0 0 109 24" version="1.1" xmlns="http://www.w3.org/2000/svg" xmlns:xlink="http://www.w3.org/1999/xlink">
    <title>Group 2</title>
    <g id="Kasutajaliides" stroke="none" stroke-width="1" fill="none" fill-rule="evenodd">
        <g id="Dashboard" transform="translate(-74.000000, -32.000000)" fill="#273038" fill-rule="nonzero">
            <g id="Group-2" transform="translate(74.000000, 32.000000)">
                <path d="M2.31973842,7.56490036 C1.52592631,7.56490036 0.770643125,7.56490036 0,7.56490036 C0,6.98774087 0,6.42595423 0,5.84877538 C0.762963154,5.84877538 1.52592631,5.84877538 2.31199391,5.84877538 C2.31199391,5.74872924 2.31199391,5.66407531 2.31199391,5.58711425 C2.32741839,4.94067368 2.28888946,4.28653378 2.35826735,3.64778609 C2.52780755,2.15481266 3.38325304,1.15436416 4.73195918,0.554094408 C5.6259336,0.146219546 6.57386143,0.0153915006 7.54489371,0 C7.56799816,0 7.59116715,0.00769578255 7.62969608,0.0153915006 C7.62969608,0.623356128 7.62969608,1.22362588 7.62969608,1.83928203 C7.33682459,1.86237357 7.04395309,1.87776578 6.75882611,1.92393596 C6.02664738,2.0239821 5.34848659,2.2548588 4.81669701,2.80125323 C4.46219214,3.16295404 4.26954749,3.60930879 4.25412301,4.10953304 C4.23869853,4.67901901 4.25412301,5.24850499 4.25412301,5.84107605 C5.37933555,5.84107605 6.50448355,5.84107605 7.63737605,5.84107605 C7.63737605,6.4182549 7.63737605,6.9800609 7.63737605,7.56490036 C6.51990802,7.56490036 5.39469549,7.56490036 4.25412301,7.56490036 C4.25412301,11.1049797 4.25412301,14.6219546 4.25412301,18.1466094 C3.60674665,18.1466094 2.97479476,18.1466094 2.32741839,18.1466094 C2.31973842,14.6219546 2.31973842,11.1049797 2.31973842,7.56490036 Z" id="Path"></path>
                <path d="M46.4793126,7.56490036 C45.7087341,7.56490036 44.9536445,7.56490036 44.1979095,7.56490036 C44.1979095,6.98774087 44.1979095,6.42594778 44.1979095,5.84106959 C44.9536445,5.84106959 45.7087341,5.84106959 46.4793126,5.84106959 C46.4793126,4.83292821 46.4793126,3.84787192 46.4793126,2.84742341 C47.134369,2.84742341 47.7661918,2.84742341 48.4289926,2.84742341 C48.4289926,3.8324797 48.4289926,4.82523533 48.4289926,5.83337671 C49.6777946,5.83337671 50.9027177,5.83337671 52.1360307,5.83337671 C52.1360307,6.4182549 52.1360307,6.9800609 52.1360307,7.56490036 C50.9027177,7.56490036 49.6777946,7.56490036 48.4289926,7.56490036 C48.4289926,7.65725362 48.4289926,7.73424694 48.4289926,7.80349576 C48.4289926,10.1276227 48.4289926,12.4440052 48.4289926,14.7681322 C48.4289926,15.8686268 49.0149938,16.4766353 50.1166501,16.5382041 C50.7646073,16.568924 51.3964301,16.4996752 52.0205084,16.3227132 C52.0514865,16.3149687 52.0824645,16.3072887 52.1282862,16.2996087 C52.1360307,16.3457531 52.1437752,16.391962 52.1437752,16.4304264 C52.1437752,16.9075526 52.1437752,17.3769989 52.1437752,17.8541252 C52.1437752,17.9387985 52.1515197,18.0157272 52.0359974,18.0465117 C50.7026512,18.3851403 49.3847941,18.4774936 48.1134039,17.8464452 C47.1730915,17.3769989 46.6645355,16.568924 46.5257797,15.5377427 C46.4870572,15.2837874 46.4793126,15.029832 46.4793126,14.7681322 C46.4793126,12.4517497 46.4793126,10.1353027 46.4793126,7.82660021 C46.4793126,7.74192692 46.4793126,7.66493359 46.4793126,7.56490036 Z" id="Path"></path>
                <path d="M27.2278845,16.2996087 C26.5728282,17.0768992 25.7713361,17.6079143 24.8310883,17.915694 C22.7503325,18.5929513 20.723401,18.4851735 18.8198654,17.361639 C17.1860322,16.399642 16.2612089,14.9143743 15.9684019,13.0520136 C15.7140593,11.4358638 15.9452329,9.88134737 16.8084229,8.45764857 C17.7717752,6.86460319 19.1974747,5.94882152 21.0471215,5.71794482 C22.742588,5.50246678 24.2916187,5.89495201 25.6094759,7.00316535 C26.711584,7.92663344 27.3589604,9.12716132 27.6209829,10.5200757 C27.7365697,11.1357641 27.7365697,11.7668125 27.7827786,12.3901809 C27.7982031,12.5748874 27.7365697,12.6364562 27.5361805,12.6364562 C24.40727,12.6287117 21.2860395,12.6287117 18.1570645,12.6287117 C18.0723267,12.6287117 17.9952688,12.6287117 17.9104665,12.6287117 C17.9181464,13.683062 18.6734296,15.0836564 20.0221358,15.8532669 C21.6405444,16.7844149 24.41495,16.7151661 25.7636562,15.045192 C26.2414278,15.4684939 26.7269439,15.8763713 27.2278845,16.2996087 Z M17.9489954,10.8741288 C20.5384363,10.8741288 23.1356218,10.8741288 25.7251272,10.8741288 C25.4553602,9.07327245 24.0450207,7.518756 21.8486135,7.518756 C19.6213575,7.518756 18.2341224,9.15026577 17.9489954,10.8741288 Z" id="Shape"></path>
                <path d="M32.2835642,12.6364562 C32.5147378,14.2294371 33.3239743,15.3991805 34.7650983,16.014869 C36.7380118,16.8537283 38.5799141,16.6382373 40.1907718,15.0759764 C40.6528608,15.4684939 41.1388287,15.8840513 41.6318958,16.2996087 C41.3543842,16.6535973 41.0233065,16.9460816 40.6606053,17.2000369 C39.76676,17.8233407 38.7651369,18.1542894 37.6938132,18.2697471 C36.4295222,18.4082447 35.188981,18.2774271 34.0175596,17.7617719 C31.9444192,16.8537283 30.7344689,15.2530029 30.379964,13.0289092 C30.1256214,11.4128239 30.3645395,9.85056294 31.2277295,8.43454412 C32.1910818,6.85692322 33.6167813,5.94112219 35.4587481,5.71025194 C37.1542791,5.4947739 38.7031808,5.88725268 40.021038,6.99542084 C41.1233397,7.91895347 41.7706515,9.11948135 42.0326741,10.5123957 C42.1481963,11.1203396 42.1559408,11.743708 42.1946634,12.3670764 C42.209507,12.6287117 42.1869189,12.6287117 41.9326408,12.6287117 C38.8109586,12.6287117 35.6899217,12.6287117 32.5686912,12.6287117 C32.4916333,12.6364562 32.4068309,12.6364562 32.2835642,12.6364562 Z M40.1443048,10.8741288 C39.8364606,8.95013477 38.310147,7.34947395 35.9057353,7.52643597 C33.824915,7.68035807 32.5917956,9.3349723 32.3760465,10.8741288 C34.9578075,10.8741288 37.5473129,10.8741288 40.1443048,10.8741288 Z" id="Shape"></path>
                <path d="M12.4540731,18.1466094 C11.8144412,18.1466094 11.1824893,18.1466094 10.5427929,18.1466094 C10.5427929,12.1592654 10.5427929,6.17969177 10.5427929,0.184697491 C11.1824893,0.184697491 11.8144412,0.184697491 12.4540731,0.184697491 C12.4540731,6.17199244 12.4540731,12.1515855 12.4540731,18.1466094 Z" id="Path"></path>
                <path d="M56.0863753,22.1868549 C56.5413652,21.7328331 56.9886106,21.2941713 57.4429551,20.8400849 C57.7895218,21.2248579 58.2212782,21.5327021 58.7072461,21.755873 C60.6569261,22.6408767 63.7469849,22.0483573 64.9105973,19.5856682 C65.1648753,19.0547176 65.3113756,18.492918 65.3268646,17.9003341 C65.3423537,17.4154633 65.3268646,16.9306571 65.3268646,16.4304264 C65.0803311,16.6535973 64.8570311,16.8767682 64.6182421,17.0691547 C61.859261,19.3163529 57.0266877,18.6390956 55.5397421,14.4833924 C54.7994962,12.4209653 54.922763,10.3738981 56.0328092,8.45764857 C56.9576325,6.86460319 58.375523,5.94881507 60.2019362,5.72563769 C62.1593607,5.47937523 63.8470182,6.06425342 65.2268314,7.49565155 C65.2500649,7.518756 65.2732985,7.53411594 65.3268646,7.58800481 C65.3268646,6.9800609 65.3268646,6.41826135 65.3268646,5.84877538 C65.9896655,5.84877538 66.6214883,5.84877538 67.2688001,5.84877538 C67.2765446,5.89494556 67.2842891,5.94112219 67.2842891,5.97959949 C67.2842891,9.91981176 67.2997782,13.8523441 67.2765446,17.7925563 C67.261701,20.5476652 65.5120875,22.8563677 62.8608841,23.6490181 C61.1499931,24.1569933 59.4545911,24.1415689 57.7972663,23.4181672 C57.14221,23.1257475 56.5645987,22.7178701 56.0863753,22.1868549 Z M57.0266877,12.0207678 C57.0654103,12.3593964 57.0886438,12.6980251 57.14221,13.0289092 C57.4971666,15.0528719 59.0925354,16.4535308 61.1267596,16.4688908 C62.8686286,16.4843152 64.1400187,15.6839203 64.8802646,14.1139794 C65.4656204,12.8673071 65.4888539,11.566746 65.0267649,10.2738003 C63.8934852,7.07241416 60.0786694,6.77992989 58.2522562,8.7500683 C57.4042325,9.66585642 57.0654103,10.7817755 57.0266877,12.0207678 Z" id="Shape"></path>
                <path d="M80.9023618,5.84107605 C81.5651627,5.84107605 82.189241,5.84107605 82.8365528,5.84107605 C82.8365528,9.93523624 82.8365528,14.0293706 82.8365528,18.1388649 C82.20473,18.1388649 81.5651627,18.1388649 80.9023618,18.1388649 C80.9023618,17.6540587 80.9023618,17.1692525 80.9023618,16.6459173 C80.8326612,16.6998062 80.7945841,16.7305906 80.7558615,16.761375 C79.8000601,17.6386342 78.6674258,18.1080805 77.3882911,18.2620026 C76.324712,18.3928203 75.2688773,18.3312514 74.2588643,17.9464784 C72.5402289,17.2846457 71.638639,15.9994445 71.4843942,14.1832927 C71.4618061,13.8908084 71.4618061,13.5907087 71.4618061,13.298289 C71.4618061,10.8971687 71.4618061,8.48843299 71.4618061,6.08733851 C71.4618061,6.01037745 71.4618061,5.93342286 71.4618061,5.84876893 C72.1168624,5.84876893 72.7564297,5.84876893 73.411486,5.84876893 C73.411486,5.92572998 73.411486,6.00268458 73.411486,6.07963917 C73.411486,8.61157067 73.411486,11.1434441 73.411486,13.675382 C73.411486,14.6065301 73.7425638,15.3607161 74.5286314,15.8917313 C75.0300883,16.2303599 75.5999551,16.384282 76.1937007,16.4381063 C77.1953238,16.5304596 78.1666142,16.4150664 79.0682041,15.9148357 C80.1930939,15.2914673 80.7945841,14.3217903 80.8946173,13.0442691 C80.9101063,12.8826671 80.9101063,12.721065 80.9101063,12.5671429 C80.9101063,10.4123625 80.9101063,8.25751756 80.9101063,6.10273072 C80.9023618,6.02576966 80.9023618,5.94112219 80.9023618,5.84107605 Z" id="Path"></path>
                <path d="M88.9714942,18.1466094 C88.3086934,18.1466094 87.6768706,18.1466094 87.0289133,18.1466094 C87.0289133,14.0524751 87.0289133,9.95827615 87.0289133,5.85646826 C87.669126,5.85646826 88.3086934,5.85646826 88.9637497,5.85646826 C88.9637497,6.38747693 88.9637497,6.92617203 88.9637497,7.51107603 C90.3661511,6.19508398 92.030575,5.6871604 93.8879663,5.67177464 C93.8879663,6.28743079 93.8879663,6.89538761 93.8879663,7.51107603 C93.6033556,7.53411594 93.3103551,7.54186045 93.025099,7.58032484 C91.8614866,7.72656697 90.7901629,8.09591549 89.9343948,8.9424548 C89.2948274,9.57350316 88.9714942,10.3507937 88.9714942,11.2512218 C88.9714942,13.475251 88.9714942,15.6993448 88.9714942,17.9234385 C88.9714942,17.9926873 88.9714942,18.0619361 88.9714942,18.1466094 Z" id="Path"></path>
                <path d="M98.9903066,5.84876893 C98.9903066,5.93342286 98.9903066,6.01038391 98.9903066,6.08733851 C98.9903066,8.61157067 98.9903066,11.1434441 98.9903066,13.6676375 C98.9903066,14.5988501 99.3136398,15.3683961 100.115196,15.8994112 C100.616008,16.2380399 101.18652,16.391962 101.77962,16.4458509 C102.774144,16.5382041 103.745435,16.4227464 104.631536,15.9301957 C105.76417,15.3068273 106.395993,14.3372148 106.465693,13.0520136 C106.51216,12.1592654 106.481182,11.2589018 106.488927,10.3584736 C106.488927,8.93477482 106.488927,7.51107603 106.488927,6.08733851 C106.488927,6.01038391 106.488927,5.93342286 106.488927,5.84876893 C107.143983,5.84876893 107.775806,5.84876893 108.423118,5.84876893 C108.423118,9.94291621 108.423118,14.0370506 108.423118,18.1388649 C107.783551,18.1388649 107.143983,18.1388649 106.488927,18.1388649 C106.488927,17.6463787 106.488927,17.1692525 106.488927,16.6459173 C106.419226,16.6998062 106.388248,16.7305906 106.357916,16.7536305 C105.39437,17.6386342 104.246246,18.123505 102.951623,18.2697471 C101.795109,18.4005648 100.662475,18.3235715 99.5911514,17.8464452 C98.0345052,17.153828 97.2329486,15.9148357 97.0709593,14.2448616 C97.0399812,13.9293374 97.0399812,13.6138132 97.0399812,13.305969 C97.0399812,10.9048487 97.0399812,8.49611296 97.0399812,6.09503784 C97.0399812,6.01807679 97.0399812,5.94112219 97.0399812,5.85646826 C97.6950376,5.84876893 98.3275058,5.84876893 98.9903066,5.84876893 Z" id="Path"></path>
            </g>
        </g>
    </g>
</svg>